<svg width="67" height="24" viewBox="0 0 67 24" fill="none" xmlns="http://www.w3.org/2000/svg">
<mask id="path-1-inside-1_36_360" fill="white">
<path fill-rule="evenodd" clip-rule="evenodd" d="M6.91742 3.39448C7.7439 1.40166 9.70826 0 12 0C14.2917 0 16.2561 1.40167 17.0826 3.3945C17.3955 3.3325 17.719 3.29999 18.0501 3.29999C20.7839 3.29999 23.0001 5.51618 23.0001 8.24999C23.0001 10.4053 21.6226 12.2388 19.7 12.9183V21.9H4.30003V12.9183C2.37745 12.2388 1 10.4053 1 8.24999C1 5.51618 3.21619 3.29999 5.95 3.29999C6.28107 3.29999 6.60455 3.33249 6.91742 3.39448Z"/>
</mask>
<path d="M6.91742 3.39448L6.6259 4.86588L7.83197 5.10483L8.30299 3.96911L6.91742 3.39448ZM17.0826 3.3945L15.697 3.96912L16.168 5.10487L17.3741 4.86589L17.0826 3.3945ZM19.7 12.9183L19.2002 11.5041L18.2 11.8576V12.9183H19.7ZM19.7 21.9V23.4H21.2V21.9H19.7ZM4.30003 21.9H2.80003V23.4H4.30003V21.9ZM4.30003 12.9183H5.80003V11.8576L4.79989 11.5041L4.30003 12.9183ZM8.30299 3.96911C8.90526 2.5169 10.3356 1.5 12 1.5V-1.5C9.08088 -1.5 6.58253 0.286423 5.53185 2.81984L8.30299 3.96911ZM12 1.5C13.6644 1.5 15.0948 2.51691 15.697 3.96912L18.4682 2.81987C17.4175 0.286434 14.9191 -1.5 12 -1.5V1.5ZM17.3741 4.86589C17.5915 4.82281 17.8174 4.79999 18.0501 4.79999V1.79999C17.6206 1.79999 17.1994 1.84218 16.791 1.9231L17.3741 4.86589ZM18.0501 4.79999C19.9555 4.79999 21.5001 6.3446 21.5001 8.24999H24.5001C24.5001 4.68775 21.6123 1.79999 18.0501 1.79999V4.79999ZM21.5001 8.24999C21.5001 9.74981 20.5422 11.0298 19.2002 11.5041L20.1999 14.3326C22.7031 13.4479 24.5001 11.0607 24.5001 8.24999H21.5001ZM18.2 12.9183V21.9H21.2V12.9183H18.2ZM19.7 20.4H4.30003V23.4H19.7V20.4ZM5.80003 21.9V12.9183H2.80003V21.9H5.80003ZM4.79989 11.5041C3.45789 11.0298 2.5 9.7498 2.5 8.24999H-0.5C-0.5 11.0607 1.29701 13.4479 3.80017 14.3326L4.79989 11.5041ZM2.5 8.24999C2.5 6.34461 4.04462 4.79999 5.95 4.79999V1.79999C2.38776 1.79999 -0.5 4.68775 -0.5 8.24999H2.5ZM5.95 4.79999C6.18267 4.79999 6.40852 4.82281 6.6259 4.86588L7.20894 1.92308C6.80058 1.84217 6.37947 1.79999 5.95 1.79999V4.79999Z" fill="#EB3C31" mask="url(#path-1-inside-1_36_360)"/>
<path d="M5 16H19" stroke="#EB3C31" stroke-width="1.5"/>
<path d="M42.0625 17H40.5547V11.7422H34.8203V17H33.3203V5.625H34.8203V10.5156H40.5547V5.625H42.0625V17ZM49.7188 17C49.6354 16.8333 49.5677 16.5365 49.5156 16.1094C48.8438 16.8073 48.0417 17.1562 47.1094 17.1562C46.276 17.1562 45.5911 16.9219 45.0547 16.4531C44.5234 15.9792 44.2578 15.3802 44.2578 14.6562C44.2578 13.776 44.5911 13.0938 45.2578 12.6094C45.9297 12.1198 46.8724 11.875 48.0859 11.875H49.4922V11.2109C49.4922 10.7057 49.3411 10.3047 49.0391 10.0078C48.737 9.70573 48.2917 9.55469 47.7031 9.55469C47.1875 9.55469 46.7552 9.6849 46.4062 9.94531C46.0573 10.2057 45.8828 10.5208 45.8828 10.8906H44.4297C44.4297 10.4688 44.5781 10.0625 44.875 9.67188C45.1771 9.27604 45.5833 8.96354 46.0938 8.73438C46.6094 8.50521 47.1745 8.39062 47.7891 8.39062C48.763 8.39062 49.526 8.63542 50.0781 9.125C50.6302 9.60938 50.9167 10.2786 50.9375 11.1328V15.0234C50.9375 15.7995 51.0365 16.4167 51.2344 16.875V17H49.7188ZM47.3203 15.8984C47.7734 15.8984 48.2031 15.7812 48.6094 15.5469C49.0156 15.3125 49.3099 15.0078 49.4922 14.6328V12.8984H48.3594C46.5885 12.8984 45.7031 13.4167 45.7031 14.4531C45.7031 14.9062 45.8542 15.2604 46.1562 15.5156C46.4583 15.7708 46.8464 15.8984 47.3203 15.8984ZM57.2891 9.84375C57.0703 9.80729 56.8333 9.78906 56.5781 9.78906C55.6302 9.78906 54.987 10.1927 54.6484 11V17H53.2031V8.54688H54.6094L54.6328 9.52344C55.1068 8.76823 55.7786 8.39062 56.6484 8.39062C56.9297 8.39062 57.1432 8.42708 57.2891 8.5V9.84375ZM58.1172 12.7031C58.1172 11.4062 58.4245 10.3646 59.0391 9.57812C59.6536 8.78646 60.4583 8.39062 61.4531 8.39062C62.4427 8.39062 63.2266 8.72917 63.8047 9.40625V5H65.25V17H63.9219L63.8516 16.0938C63.2734 16.8021 62.4688 17.1562 61.4375 17.1562C60.4583 17.1562 59.6589 16.7552 59.0391 15.9531C58.4245 15.151 58.1172 14.1042 58.1172 12.8125V12.7031ZM59.5625 12.8672C59.5625 13.8255 59.7604 14.5755 60.1562 15.1172C60.5521 15.6589 61.099 15.9297 61.7969 15.9297C62.7135 15.9297 63.3828 15.5182 63.8047 14.6953V10.8125C63.3724 10.0156 62.7083 9.61719 61.8125 9.61719C61.1042 9.61719 60.5521 9.89062 60.1562 10.4375C59.7604 10.9844 59.5625 11.7943 59.5625 12.8672Z" fill="#EB3C31"/>
</svg>
