<svg width="66" height="24" viewBox="0 0 66 24" fill="none" xmlns="http://www.w3.org/2000/svg">
<mask id="path-1-inside-1_36_341" fill="white">
<path fill-rule="evenodd" clip-rule="evenodd" d="M6.91742 3.39448C7.7439 1.40166 9.70826 0 12 0C14.2917 0 16.2561 1.40167 17.0826 3.3945C17.3955 3.3325 17.719 3.29999 18.0501 3.29999C20.7839 3.29999 23.0001 5.51618 23.0001 8.24999C23.0001 10.4053 21.6226 12.2388 19.7 12.9183V21.9H4.30003V12.9183C2.37745 12.2388 1 10.4053 1 8.24999C1 5.51618 3.21619 3.29999 5.95 3.29999C6.28107 3.29999 6.60455 3.33249 6.91742 3.39448Z"/>
</mask>
<path d="M6.91742 3.39448L6.6259 4.86588L7.83197 5.10483L8.30299 3.96911L6.91742 3.39448ZM17.0826 3.3945L15.697 3.96912L16.168 5.10487L17.3741 4.86589L17.0826 3.3945ZM19.7 12.9183L19.2002 11.5041L18.2 11.8576V12.9183H19.7ZM19.7 21.9V23.4H21.2V21.9H19.7ZM4.30003 21.9H2.80003V23.4H4.30003V21.9ZM4.30003 12.9183H5.80003V11.8576L4.79989 11.5041L4.30003 12.9183ZM8.30299 3.96911C8.90526 2.5169 10.3356 1.5 12 1.5V-1.5C9.08088 -1.5 6.58253 0.286423 5.53185 2.81984L8.30299 3.96911ZM12 1.5C13.6644 1.5 15.0948 2.51691 15.697 3.96912L18.4682 2.81987C17.4175 0.286434 14.9191 -1.5 12 -1.5V1.5ZM17.3741 4.86589C17.5915 4.82281 17.8174 4.79999 18.0501 4.79999V1.79999C17.6206 1.79999 17.1994 1.84218 16.791 1.9231L17.3741 4.86589ZM18.0501 4.79999C19.9555 4.79999 21.5001 6.3446 21.5001 8.24999H24.5001C24.5001 4.68775 21.6123 1.79999 18.0501 1.79999V4.79999ZM21.5001 8.24999C21.5001 9.74981 20.5422 11.0298 19.2002 11.5041L20.1999 14.3326C22.7031 13.4479 24.5001 11.0607 24.5001 8.24999H21.5001ZM18.2 12.9183V21.9H21.2V12.9183H18.2ZM19.7 20.4H4.30003V23.4H19.7V20.4ZM5.80003 21.9V12.9183H2.80003V21.9H5.80003ZM4.79989 11.5041C3.45789 11.0298 2.5 9.7498 2.5 8.24999H-0.5C-0.5 11.0607 1.29701 13.4479 3.80017 14.3326L4.79989 11.5041ZM2.5 8.24999C2.5 6.34461 4.04462 4.79999 5.95 4.79999V1.79999C2.38776 1.79999 -0.5 4.68775 -0.5 8.24999H2.5ZM5.95 4.79999C6.18267 4.79999 6.40852 4.82281 6.6259 4.86588L7.20894 1.92308C6.80058 1.84217 6.37947 1.79999 5.95 1.79999V4.79999Z" fill="#2FB65D" mask="url(#path-1-inside-1_36_341)"/>
<path d="M5 16H19" stroke="#2FB65D" stroke-width="1.5"/>
<path d="M39.75 11.7422H34.8203V15.7734H40.5469V17H33.3203V5.625H40.4688V6.85938H34.8203V10.5156H39.75V11.7422ZM47.4062 17C47.3229 16.8333 47.2552 16.5365 47.2031 16.1094C46.5312 16.8073 45.7292 17.1562 44.7969 17.1562C43.9635 17.1562 43.2786 16.9219 42.7422 16.4531C42.2109 15.9792 41.9453 15.3802 41.9453 14.6562C41.9453 13.776 42.2786 13.0938 42.9453 12.6094C43.6172 12.1198 44.5599 11.875 45.7734 11.875H47.1797V11.2109C47.1797 10.7057 47.0286 10.3047 46.7266 10.0078C46.4245 9.70573 45.9792 9.55469 45.3906 9.55469C44.875 9.55469 44.4427 9.6849 44.0938 9.94531C43.7448 10.2057 43.5703 10.5208 43.5703 10.8906H42.1172C42.1172 10.4688 42.2656 10.0625 42.5625 9.67188C42.8646 9.27604 43.2708 8.96354 43.7812 8.73438C44.2969 8.50521 44.862 8.39062 45.4766 8.39062C46.4505 8.39062 47.2135 8.63542 47.7656 9.125C48.3177 9.60938 48.6042 10.2786 48.625 11.1328V15.0234C48.625 15.7995 48.724 16.4167 48.9219 16.875V17H47.4062ZM45.0078 15.8984C45.4609 15.8984 45.8906 15.7812 46.2969 15.5469C46.7031 15.3125 46.9974 15.0078 47.1797 14.6328V12.8984H46.0469C44.276 12.8984 43.3906 13.4167 43.3906 14.4531C43.3906 14.9062 43.5417 15.2604 43.8438 15.5156C44.1458 15.7708 44.5339 15.8984 45.0078 15.8984ZM55.8125 14.7578C55.8125 14.3672 55.6641 14.0651 55.3672 13.8516C55.0755 13.6328 54.5625 13.4453 53.8281 13.2891C53.099 13.1328 52.5182 12.9453 52.0859 12.7266C51.6589 12.5078 51.3411 12.2474 51.1328 11.9453C50.9297 11.6432 50.8281 11.2839 50.8281 10.8672C50.8281 10.1745 51.1198 9.58854 51.7031 9.10938C52.2917 8.63021 53.0417 8.39062 53.9531 8.39062C54.9115 8.39062 55.6875 8.63802 56.2812 9.13281C56.8802 9.6276 57.1797 10.2604 57.1797 11.0312H55.7266C55.7266 10.6354 55.5573 10.2943 55.2188 10.0078C54.8854 9.72135 54.4635 9.57812 53.9531 9.57812C53.4271 9.57812 53.0156 9.69271 52.7188 9.92188C52.4219 10.151 52.2734 10.4505 52.2734 10.8203C52.2734 11.1693 52.4115 11.4323 52.6875 11.6094C52.9635 11.7865 53.4609 11.9557 54.1797 12.1172C54.9036 12.2786 55.4896 12.4714 55.9375 12.6953C56.3854 12.9193 56.7161 13.1901 56.9297 13.5078C57.1484 13.8203 57.2578 14.2031 57.2578 14.6562C57.2578 15.4115 56.9557 16.0182 56.3516 16.4766C55.7474 16.9297 54.9635 17.1562 54 17.1562C53.3229 17.1562 52.724 17.0365 52.2031 16.7969C51.6823 16.5573 51.2734 16.224 50.9766 15.7969C50.6849 15.3646 50.5391 14.8984 50.5391 14.3984H51.9844C52.0104 14.8828 52.2031 15.2682 52.5625 15.5547C52.9271 15.8359 53.4062 15.9766 54 15.9766C54.5469 15.9766 54.9844 15.8672 55.3125 15.6484C55.6458 15.4245 55.8125 15.1276 55.8125 14.7578ZM61.9062 14.8828L63.875 8.54688H65.4219L62.0234 18.3047C61.4974 19.7109 60.6615 20.4141 59.5156 20.4141L59.2422 20.3906L58.7031 20.2891V19.1172L59.0938 19.1484C59.5833 19.1484 59.9635 19.0495 60.2344 18.8516C60.5104 18.6536 60.737 18.2917 60.9141 17.7656L61.2344 16.9062L58.2188 8.54688H59.7969L61.9062 14.8828Z" fill="#2FB65D"/>
</svg>
