<svg width="91" height="24" viewBox="0 0 91 24" fill="none" xmlns="http://www.w3.org/2000/svg">
<mask id="path-1-inside-1_36_351" fill="white">
<path fill-rule="evenodd" clip-rule="evenodd" d="M6.91742 3.39448C7.7439 1.40166 9.70826 0 12 0C14.2917 0 16.2561 1.40167 17.0826 3.3945C17.3955 3.3325 17.719 3.29999 18.0501 3.29999C20.7839 3.29999 23.0001 5.51618 23.0001 8.24999C23.0001 10.4053 21.6226 12.2388 19.7 12.9183V21.9H4.30003V12.9183C2.37745 12.2388 1 10.4053 1 8.24999C1 5.51618 3.21619 3.29999 5.95 3.29999C6.28107 3.29999 6.60455 3.33249 6.91742 3.39448Z"/>
</mask>
<path d="M6.91742 3.39448L6.6259 4.86588L7.83197 5.10483L8.30299 3.96911L6.91742 3.39448ZM17.0826 3.3945L15.697 3.96912L16.168 5.10487L17.3741 4.86589L17.0826 3.3945ZM19.7 12.9183L19.2002 11.5041L18.2 11.8576V12.9183H19.7ZM19.7 21.9V23.4H21.2V21.9H19.7ZM4.30003 21.9H2.80003V23.4H4.30003V21.9ZM4.30003 12.9183H5.80003V11.8576L4.79989 11.5041L4.30003 12.9183ZM8.30299 3.96911C8.90526 2.5169 10.3356 1.5 12 1.5V-1.5C9.08088 -1.5 6.58253 0.286423 5.53185 2.81984L8.30299 3.96911ZM12 1.5C13.6644 1.5 15.0948 2.51691 15.697 3.96912L18.4682 2.81987C17.4175 0.286434 14.9191 -1.5 12 -1.5V1.5ZM17.3741 4.86589C17.5915 4.82281 17.8174 4.79999 18.0501 4.79999V1.79999C17.6206 1.79999 17.1994 1.84218 16.791 1.9231L17.3741 4.86589ZM18.0501 4.79999C19.9555 4.79999 21.5001 6.3446 21.5001 8.24999H24.5001C24.5001 4.68775 21.6123 1.79999 18.0501 1.79999V4.79999ZM21.5001 8.24999C21.5001 9.74981 20.5422 11.0298 19.2002 11.5041L20.1999 14.3326C22.7031 13.4479 24.5001 11.0607 24.5001 8.24999H21.5001ZM18.2 12.9183V21.9H21.2V12.9183H18.2ZM19.7 20.4H4.30003V23.4H19.7V20.4ZM5.80003 21.9V12.9183H2.80003V21.9H5.80003ZM4.79989 11.5041C3.45789 11.0298 2.5 9.7498 2.5 8.24999H-0.5C-0.5 11.0607 1.29701 13.4479 3.80017 14.3326L4.79989 11.5041ZM2.5 8.24999C2.5 6.34461 4.04462 4.79999 5.95 4.79999V1.79999C2.38776 1.79999 -0.5 4.68775 -0.5 8.24999H2.5ZM5.95 4.79999C6.18267 4.79999 6.40852 4.82281 6.6259 4.86588L7.20894 1.92308C6.80058 1.84217 6.37947 1.79999 5.95 1.79999V4.79999Z" fill="#EB8A31" mask="url(#path-1-inside-1_36_351)"/>
<path d="M5 16H19" stroke="#EB8A31" stroke-width="1.5"/>
<path d="M35.2578 5.625L38.9766 14.9062L42.6953 5.625H44.6406V17H43.1406V12.5703L43.2812 7.78906L39.5469 17H38.3984L34.6719 7.8125L34.8203 12.5703V17H33.3203V5.625H35.2578ZM50.5703 17.1562C49.4245 17.1562 48.4922 16.7812 47.7734 16.0312C47.0547 15.276 46.6953 14.2682 46.6953 13.0078V12.7422C46.6953 11.9036 46.8542 11.1562 47.1719 10.5C47.4948 9.83854 47.9427 9.32292 48.5156 8.95312C49.0938 8.57812 49.7188 8.39062 50.3906 8.39062C51.4896 8.39062 52.3438 8.7526 52.9531 9.47656C53.5625 10.2005 53.8672 11.237 53.8672 12.5859V13.1875H48.1406C48.1615 14.0208 48.4036 14.6953 48.8672 15.2109C49.3359 15.7214 49.9297 15.9766 50.6484 15.9766C51.1589 15.9766 51.5911 15.8724 51.9453 15.6641C52.2995 15.4557 52.6094 15.1797 52.875 14.8359L53.7578 15.5234C53.0495 16.612 51.987 17.1562 50.5703 17.1562ZM50.3906 9.57812C49.8073 9.57812 49.3177 9.79167 48.9219 10.2188C48.526 10.6406 48.2812 11.2344 48.1875 12H52.4219V11.8906C52.3802 11.1562 52.1823 10.5885 51.8281 10.1875C51.474 9.78125 50.9948 9.57812 50.3906 9.57812ZM55.1953 12.7031C55.1953 11.4062 55.5026 10.3646 56.1172 9.57812C56.7318 8.78646 57.5365 8.39062 58.5312 8.39062C59.5208 8.39062 60.3047 8.72917 60.8828 9.40625V5H62.3281V17H61L60.9297 16.0938C60.3516 16.8021 59.5469 17.1562 58.5156 17.1562C57.5365 17.1562 56.737 16.7552 56.1172 15.9531C55.5026 15.151 55.1953 14.1042 55.1953 12.8125V12.7031ZM56.6406 12.8672C56.6406 13.8255 56.8385 14.5755 57.2344 15.1172C57.6302 15.6589 58.1771 15.9297 58.875 15.9297C59.7917 15.9297 60.4609 15.5182 60.8828 14.6953V10.8125C60.4505 10.0156 59.7865 9.61719 58.8906 9.61719C58.1823 9.61719 57.6302 9.89062 57.2344 10.4375C56.8385 10.9844 56.6406 11.7943 56.6406 12.8672ZM66.1484 17H64.7031V8.54688H66.1484V17ZM64.5859 6.30469C64.5859 6.07031 64.6562 5.8724 64.7969 5.71094C64.9427 5.54948 65.1562 5.46875 65.4375 5.46875C65.7188 5.46875 65.9323 5.54948 66.0781 5.71094C66.224 5.8724 66.2969 6.07031 66.2969 6.30469C66.2969 6.53906 66.224 6.73438 66.0781 6.89062C65.9323 7.04688 65.7188 7.125 65.4375 7.125C65.1562 7.125 64.9427 7.04688 64.7969 6.89062C64.6562 6.73438 64.5859 6.53906 64.5859 6.30469ZM73.6875 16.1641C73.125 16.8255 72.2995 17.1562 71.2109 17.1562C70.3099 17.1562 69.6224 16.8958 69.1484 16.375C68.6797 15.849 68.4427 15.0729 68.4375 14.0469V8.54688H69.8828V14.0078C69.8828 15.2891 70.4036 15.9297 71.4453 15.9297C72.5495 15.9297 73.2839 15.5182 73.6484 14.6953V8.54688H75.0938V17H73.7188L73.6875 16.1641ZM78.6562 8.54688L78.6953 9.48438C79.3151 8.75521 80.151 8.39062 81.2031 8.39062C82.3854 8.39062 83.1901 8.84375 83.6172 9.75C83.8984 9.34375 84.263 9.01562 84.7109 8.76562C85.1641 8.51562 85.6979 8.39062 86.3125 8.39062C88.1667 8.39062 89.1094 9.3724 89.1406 11.3359V17H87.6953V11.4219C87.6953 10.8177 87.5573 10.3672 87.2812 10.0703C87.0052 9.76823 86.5417 9.61719 85.8906 9.61719C85.3542 9.61719 84.9089 9.77865 84.5547 10.1016C84.2005 10.4193 83.9948 10.849 83.9375 11.3906V17H82.4844V11.4609C82.4844 10.2318 81.8828 9.61719 80.6797 9.61719C79.7318 9.61719 79.0833 10.0208 78.7344 10.8281V17H77.2891V8.54688H78.6562Z" fill="#EB8A31"/>
</svg>
